# xmcd
#
# Track frame offsets:
# 150
# 24120
# 41880
# 63757
# 78405
# 90010
# 112065
# 135115
# 151915
#
# Disc length: 2464 seconds
#
#
# Revision: 3
# Processed by: cddbd v1.5.1PL0 Copyright (c) Steve Scherf et al.
# Submitted via: FreeRIP 2.91 
#
DISCID=59099e09
DTITLE=Black Cat Bones - Barbed Wire Sandwich
DYEAR=1969
DGENRE=Blues
TTITLE0=Chauffeur
TTITLE1=Death Valley Blues
TTITLE2=Feelin´ Good
TTITLE3=Please Tell Me Baby
TTITLE4=Coming Back
TTITLE5=Save My Love
TTITLE6=Four Women
TTITLE7=Sylvester´s Blues
TTITLE8=Good Lookin´ Woman
EXTD=
EXTT0=
EXTT1=
EXTT2=
EXTT3=
EXTT4=
EXTT5=
EXTT6=
EXTT7=
EXTT8=
PLAYORDER=
